<?xml version="1.0" standalone="no"?>
<!DOCTYPE svg PUBLIC "-//W3C//DTD SVG 20010904//EN"
 "http://www.w3.org/TR/2001/REC-SVG-20010904/DTD/svg10.dtd">
<svg version="1.0" xmlns="http://www.w3.org/2000/svg"
 width="512.000000pt" height="512.000000pt" viewBox="0 0 512.000000 512.000000"
 preserveAspectRatio="xMidYMid meet">

<g transform="translate(0.000000,512.000000) scale(0.100000,-0.100000)"
fill="#000000" stroke="none">
<path d="M985 5109 c-518 -71 -849 -373 -957 -871 -29 -138 -32 -437 -4 -603
49 -301 155 -613 317 -937 l69 -138 -69 -137 c-162 -325 -267 -635 -317 -938
-28 -165 -26 -464 4 -603 71 -328 232 -562 494 -719 443 -265 1143 -201 1888
172 l150 75 138 -69 c324 -162 636 -268 937 -317 167 -28 465 -25 603 4 463
100 754 391 853 852 30 140 33 437 5 605 -49 301 -155 613 -317 938 l-69 137
69 138 c160 320 259 609 313 912 32 182 32 481 -1 630 -100 462 -390 752 -853
852 -138 29 -436 32 -603 4 -301 -49 -613 -155 -937 -317 l-137 -68 -193 93
c-296 144 -577 239 -849 286 -142 24 -423 35 -534 19z m424 -304 c198 -28 441
-100 687 -205 174 -73 170 -67 82 -124 -558 -370 -1164 -976 -1534 -1534 -57
-87 -51 -90 -119 66 -89 202 -163 443 -201 652 -25 135 -25 405 -1 520 65 303
238 499 521 590 154 50 366 63 565 35z m2776 -10 c274 -58 473 -219 564 -455
51 -131 66 -225 65 -415 -1 -231 -33 -404 -128 -681 -45 -132 -127 -327 -150
-359 -10 -15 -18 -8 -60 57 -366 553 -972 1160 -1519 1523 -104 69 -107 61 52
131 221 97 539 189 736 213 106 13 352 5 440 -14z m-1456 -539 c322 -214 534
-389 832 -686 233 -233 363 -382 529 -605 109 -145 270 -388 270 -405 0 -17
-161 -260 -270 -405 -164 -221 -295 -371 -525 -600 -299 -300 -543 -500 -864
-710 -155 -101 -124 -103 -299 11 -300 196 -552 403 -848 699 -229 228 -359
378 -524 600 -110 147 -270 388 -270 406 0 16 189 300 283 424 261 347 623
719 964 992 190 151 526 383 556 383 5 0 80 -47 166 -104z m-2071 -2096 c366
-550 969 -1151 1520 -1516 87 -57 90 -51 -66 -119 -202 -89 -443 -163 -652
-201 -135 -25 -405 -25 -520 -1 -339 73 -544 278 -617 619 -13 62 -18 126 -17
253 0 178 13 270 59 455 59 231 212 619 234 594 5 -5 31 -43 59 -84z m3937
-48 c89 -202 163 -443 201 -652 25 -134 25 -405 1 -518 -60 -281 -218 -479
-457 -571 -131 -51 -225 -66 -415 -65 -231 1 -404 33 -681 128 -132 45 -327
127 -358 149 -15 11 1 24 112 100 353 239 768 615 1076 973 132 153 316 392
402 522 57 87 51 90 119 -66z"/>
<path d="M1930 3335 c-169 -46 -323 -171 -399 -325 -94 -191 -94 -378 0 -570
41 -83 50 -93 488 -533 245 -247 458 -455 473 -463 35 -18 101 -18 136 0 15 8
228 216 473 463 438 440 447 450 488 533 124 256 80 533 -118 730 -131 131
-275 185 -466 178 -162 -7 -291 -59 -402 -161 l-43 -39 -40 35 c-65 59 -143
106 -221 135 -62 21 -94 26 -194 29 -83 2 -137 -2 -175 -12z m303 -314 c26
-13 96 -70 156 -126 161 -153 181 -153 342 0 140 132 174 149 299 150 110 0
166 -21 233 -88 63 -63 92 -136 92 -232 0 -144 -7 -152 -430 -575 l-365 -365
-365 365 c-311 310 -370 374 -396 426 -89 179 -13 377 175 456 60 26 195 20
259 -11z"/>
</g>
</svg>
